HIERARCHY
ROOT Hips
{
    OFFSET 0.0 0.0 0.0
    CHANNELS 6 Xposition Yposition Zposition Zrotation Xrotation Yrotation
    JOINT LeftHipJoint
    {
        OFFSET 0.1 0.0 0.0
        CHANNELS 3 Zrotation Xrotation Yrotation
        JOINT LeftUpLeg
        {
            OFFSET 121.06893578073942 0.0 0.0
            CHANNELS 3 Zrotation Xrotation Yrotation
            JOINT LeftLeg
            {
                OFFSET 0.0 0.0 -413.1979380008614
                CHANNELS 3 Zrotation Xrotation Yrotation
                JOINT LeftFoot
                {
                    OFFSET 0.0 0.0 -397.87106546566906
                    CHANNELS 3 Zrotation Xrotation Yrotation
                    End Site
                    {
                        OFFSET 0.0 -0.1 0.0
                    }
                }
            }
        }
    }
    JOINT LowerBack
    {
        OFFSET 0.0 0.0 0.1
        CHANNELS 3 Zrotation Xrotation Yrotation
        JOINT Spine
        {
            OFFSET 0.0 0.0 217.0967271098576
            CHANNELS 3 Zrotation Xrotation Yrotation
            JOINT Spine1
            {
                OFFSET 0.0 0.0 251.3584201691996
                CHANNELS 3 Zrotation Xrotation Yrotation
                JOINT LeftShoulder
                {
                    OFFSET 0.1 0.0 0.0
                    CHANNELS 3 Zrotation Xrotation Yrotation
                    JOINT LeftArm
                    {
                        OFFSET 142.93000990577355 0.0 0.0
                        CHANNELS 3 Zrotation Xrotation Yrotation
                        JOINT LeftForeArm
                        {
                            OFFSET 249.76626956986956 0.0 0.0
                            CHANNELS 3 Zrotation Xrotation Yrotation
                            JOINT LeftHand
                            {
                                OFFSET 245.86944154131027 0.0 0.0
                                CHANNELS 3 Zrotation Xrotation Yrotation
                                End Site
                                {
                                    OFFSET 0.1 0.0 0.0
                                }
                            }
                        }
                    }
                }
                JOINT Neck
                {
                    OFFSET 0.0 0.0 0.1
                    CHANNELS 3 Zrotation Xrotation Yrotation
                    JOINT Neck1
                    {
                        OFFSET 0.0 0.0 110.58882603819255
                        CHANNELS 3 Zrotation Xrotation Yrotation
                        End Site
                        {
                            OFFSET 0.0 0.0 121.95158134762507
                        }
                    }
                }
                JOINT RightShoulder
                {
                    OFFSET -0.1 0.0 0.0
                    CHANNELS 3 Zrotation Xrotation Yrotation
                    JOINT RightArm
                    {
                        OFFSET -142.93000990577355 0.0 0.0
                        CHANNELS 3 Zrotation Xrotation Yrotation
                        JOINT RightForeArm
                        {
                            OFFSET -249.76626956986956 0.0 0.0
                            CHANNELS 3 Zrotation Xrotation Yrotation
                            JOINT RightHand
                            {
                                OFFSET -245.86944154131027 0.0 0.0
                                CHANNELS 3 Zrotation Xrotation Yrotation
                                End Site
                                {
                                    OFFSET -0.1 0.0 0.0
                                }
                            }
                        }
                    }
                }
            }
        }
    }
    JOINT RightHipJoint
    {
        OFFSET -0.1 0.0 0.0
        CHANNELS 3 Zrotation Xrotation Yrotation
        JOINT RightUpLeg
        {
            OFFSET -121.06893578073942 0.0 0.0
            CHANNELS 3 Zrotation Xrotation Yrotation
            JOINT RightLeg
            {
                OFFSET 0.0 0.0 -413.1979380008614
                CHANNELS 3 Zrotation Xrotation Yrotation
                JOINT RightFoot
                {
                    OFFSET 0.0 0.0 -397.87106546566906
                    CHANNELS 3 Zrotation Xrotation Yrotation
                    End Site
                    {
                        OFFSET 0.0 -0.1 0.0
                    }
                }
            }
        }
    }
}
MOTION
Frames: 11
Frame Time: 0.03333333333333333
0.0 0.0 793.5887664010527 25.654453728639886 1.642420781615306 5.0774897598517725 0.0 0.0 3.851452934584727e-16 -0.3727677554252988 -15.89253789377347 -0.2388328535745677 0.6598849642213988 30.44029457388913 -1.3283576342728234 0.0 0.0 -7.951386703658792e-16 0.0 0.0 3.851452934584727e-16 -0.08538868490240721 -3.7248476475673686 -1.1296577981169746 4.379185892859459 4.510298578203731e-16 -1.2108242458296105e-15 -6.3611093629270335e-15 5.963540027744094e-16 9.939233379573495e-17 -27.040323414261337 4.2394357972765 74.43151655127312 -35.0462471740362 -7.227635331438574e-16 1.2852535856375005e-14 0.0 0.0 -2.3854160110976376e-15 -6.3611093629270335e-15 5.963540027744094e-16 9.939233379573495e-17 -3.976280380959646 -14.530771730859314 3.4249660029822855 -6.3611093629270335e-15 5.963540027744094e-16 9.939233379573495e-17 17.979570265624165 -12.236634731507987 -44.49629794058601 79.64507568599477 2.5460811807086534e-15 3.0534584079403615e-15 0.0 0.0 -3.1805546814635168e-15 0.0 0.0 3.851452934584727e-16 -0.23517524665779488 -10.145140969067647 -2.678791431236896 -0.6302428414566104 25.106847502664476 -1.2825481936991256 1.3793457181406746e-33 -1.987846675914698e-16 7.951386703658792e-16
0.0 0.0 793.5887664010527 25.783054628310772 1.587794448300553 5.098181011896935 0.0 0.0 3.60297210009539e-16 -0.40105423723058803 -16.1406538592402 -0.3025643114551003 0.676828832831869 30.69036535249291 -1.116704789543912 0.0 0.0 7.951386703658792e-16 0.0 0.0 3.60297210009539e-16 -0.08362362569887699 -3.4478667165470016 -1.1158548671951323 4.34321057018978 1.6851204164946566e-16 -8.021000816605108e-16 0.0 0.0 0.0 -26.922245984691653 3.3549198610192743 74.42884510289817 -34.406081479982994 -1.6419479228269872e-15 -5.4506016974897755e-15 0.0 0.0 2.3854160110976376e-15 0.0 0.0 0.0 -3.6925818351527595 -14.672239167066929 3.539630468977224 0.0 0.0 0.0 19.170249797292126 -10.12463447953433 -45.4324250496664 76.3759736154656 -1.1474260854136569e-14 5.990525578419805e-15 0.0 0.0 3.1805546814635168e-15 0.0 0.0 3.60297210009539e-16 -0.2548990651619466 -10.389026895410835 -2.599557050592663 -0.5652058449168296 25.460921628790548 -1.4160391960433913 0.0 0.0 0.0
0.0 0.0 793.5887664010527 25.85591465624856 1.4199835404902752 5.11266881073565 0.0 0.0 -2.795409388005044e-16 -0.39918833725472785 -16.009930809482864 -0.34971020225786026 0.6661232034846022 31.2434688310414 -1.050373869115799 0.0 0.0 -1.1927080055488188e-15 0.0 0.0 -2.795409388005044e-16 -0.08095343396981412 -3.324738721704313 -0.9743197053987227 4.1376570582202925 -2.8704524999682467e-17 -7.946203844325673e-16 0.0 0.0 -9.93923337957349e-17 -26.62517550669786 2.5273625665314845 74.10042138921759 -33.86055958971553 1.1903041290984593e-15 7.011620104451512e-15 0.0 0.0 0.0 0.0 0.0 -9.93923337957349e-17 -3.535331293685647 -14.709125439157813 3.1067123812038133 0.0 0.0 -9.93923337957349e-17 20.649276219908142 -8.569258973530648 -46.087774433994205 72.46085628448702 -2.8197245905847995e-15 -3.8483751658661406e-15 0.0 0.0 -1.5902773407317584e-15 0.0 0.0 -2.795409388005044e-16 -0.25388095929614196 -10.306623948049719 -2.6198076810206397 -0.5797095360193335 25.74653109874524 -1.4376084618769156 0.0 0.0 3.975693351829396e-16
0.0 0.0 793.5887664010527 25.830349623103935 1.034570565799523 5.10080343408693 0.0 0.0 2.3605679276487037e-16 -0.4046440959297986 -15.607239365095564 -0.28705868796328227 0.7461380879371623 31.49444620951671 -1.2301886922564562 0.0 0.0 7.951386703658792e-16 0.0 0.0 2.3605679276487037e-16 -0.07806862480808394 -3.078936258005989 -0.9330172705930759 4.043755015794116 -3.9030847881995974e-16 2.126875918066326e-16 0.0 0.0 -9.93923337957349e-17 -26.260678786947697 2.259100232609916 74.15798477123967 -33.447595032392215 -9.95318500111701e-15 1.1019964023402897e-14 -3.1805546814635164e-15 1.7655625192200634e-31 -6.361109362927033e-15 0.0 0.0 -9.93923337957349e-17 -3.2072572597126126 -14.605113717947173 3.0522520636782073 0.0 0.0 -9.93923337957349e-17 21.632993385987987 -6.7623849227144675 -47.225709042320496 69.59208050050604 4.5375130202793626e-15 6.5295885093868736e-15 0.0 0.0 0.0 0.0 0.0 2.3605679276487037e-16 -0.25824641602227466 -10.06623496427083 -2.564725965787286 -0.5272569425802585 25.830145954165086 -1.6245333463244083 3.1805546814635164e-15 3.310429723537619e-32 1.1927080055488186e-15
0.0 0.0 793.5887664010527 25.826372077408223 0.7471813408440218 5.123733480838367 0.0 0.0 -2.2363275104040355e-16 -0.4079266490411834 -15.284643102440715 -0.18691428283883577 0.8404941833318904 31.67973206720236 -1.5216527070659536 0.0 0.0 -7.951386703658792e-16 0.0 0.0 -2.2363275104040355e-16 -0.07679245652093339 -2.9384538931403075 -0.9185885412137283 3.789503805085793 2.2167988266317078e-16 6.887933932193822e-16 0.0 0.0 0.0 -25.558740788561924 2.5529412166771466 74.31451997872384 -33.10577857786211 1.1940121621170885e-14 4.4820230585669526e-15 -3.1805546814635176e-15 1.5902773407317588e-15 7.951386703658794e-16 0.0 0.0 0.0 -3.140368841245546 -14.325157685160576 2.902018852291407 0.0 0.0 0.0 22.309139540854694 -4.832726949360623 -48.24525034304338 67.08406387078504 8.787054733304122e-16 1.3254654697818609e-15 0.0 0.0 -1.5902773407317584e-15 0.0 0.0 -2.2363275104040355e-16 -0.2655097155922563 -10.036712364992148 -2.5777662134137573 -0.5196236537627402 26.178671632245944 -1.5562944712135964 0.0 0.0 -3.975693351829396e-16
0.0 0.0 793.5887664010527 25.84551475099757 0.48840559529709593 5.161177557906349 0.0 0.0 1.0436195048552165e-15 -0.46703735360634485 -15.14048887480978 -0.16371820399443524 1.0172775091837092 32.02717982209496 -1.5145539896707365 0.0 0.0 3.975693351829396e-16 0.0 0.0 1.0436195048552165e-15 -0.08232006890993795 -2.7245750907802706 -0.9874649887884515 3.5947114922090933 3.661996960045026e-16 -1.005903952005505e-15 0.0 0.0 -1.987846675914698e-16 -25.177420482687168 2.785112546478512 74.65589705431542 -33.04137376878522 1.3869331926808116e-14 -1.879782999016532e-14 0.0 -1.5902773407317584e-15 0.0 0.0 0.0 -1.987846675914698e-16 -2.9654656967913304 -14.318276940526454 2.753685019220056 0.0 0.0 -1.987846675914698e-16 21.917041328140773 -3.666387331609972 -49.86082782314469 66.54947804656356 -1.3170813317970514e-14 -8.47590305078599e-15 0.0 0.0 0.0 0.0 0.0 1.0436195048552165e-15 -0.304386896061781 -9.952980658359976 -2.5665165486485897 -0.40571841627930744 26.638396493272214 -1.5452663779373983 0.0 0.0 -3.975693351829396e-16
0.0 0.0 793.5887664010527 25.82646514499857 0.46676014516210534 5.198379219100542 0.0 0.0 1.4908850069360235e-16 -0.5126722573888074 -15.182604115114271 -0.16472670164614792 1.142575425049752 32.4752253015096 -1.560078942815393 3.1805546814635164e-15 -1.9878466759146975e-16 3.9756933518293955e-16 0.0 0.0 1.4908850069360235e-16 -0.08451364314256628 -2.555616889459737 -1.0403433233749813 3.552089992740902 3.696542629239401e-16 -9.064230908280904e-16 0.0 0.0 -1.987846675914698e-16 -24.44338118112542 3.5133863490805957 75.11425191248814 -33.17134562571121 -1.0911645290267922e-14 8.780100513099459e-15 7.724336021587778e-32 1.5902773407317582e-15 -5.5659706925611536e-15 0.0 0.0 -1.987846675914698e-16 -2.7191514871721836 -14.178108861483725 2.7118320034699974 0.0 0.0 -1.987846675914698e-16 21.157019926116163 -2.3346291849359138 -51.41606752529074 65.61205848049657 8.616069519775859e-16 1.3366433633354739e-15 0.0 0.0 0.0 0.0 0.0 1.4908850069360235e-16 -0.34177597645851393 -10.202719319476826 -2.5089183100521 -0.30105203684220033 27.28427174295844 -1.66767659985844 0.0 0.0 7.951386703658792e-16
0.0 0.0 793.5887664010527 25.77936672431826 0.28467207448566406 5.166457324243315 0.0 0.0 2.4848083448933725e-17 -0.5550600267952659 -15.000720608386585 -0.09620914898464063 1.3140811979375215 32.638847161105716 -1.6411970529374138 0.0 0.0 -7.951386703658792e-16 0.0 0.0 2.4848083448933725e-17 -0.08761321730199595 -2.4158894989789546 -1.073027033008064 3.317327310264731 -4.90999601643622e-16 2.130859819165148e-16 -3.1805546814635168e-15 3.975693351829396e-16 -1.987846675914698e-16 -24.07720773030289 3.7932642508241843 75.35789746476918 -32.747000598415305 -5.575676324488884e-15 1.897692331881324e-14 0.0 0.0 -7.95138670365879e-15 -3.1805546814635168e-15 3.975693351829396e-16 -1.987846675914698e-16 -2.359919377982438 -14.033956926637796 2.773422465310447 -3.1805546814635168e-15 3.975693351829396e-16 -1.987846675914698e-16 21.080829575010767 -0.5730330648953796 -53.18099184717672 64.07953259113839 -5.392185820790148e-15 3.3746176674088073e-15 0.0 0.0 0.0 0.0 0.0 2.4848083448933725e-17 -0.3759792339721228 -10.22957085524314 -2.5297693185061894 -0.22116680553690715 27.858713982292173 -1.5634016044668182 0.0 0.0 7.951386703658792e-16
0.0 0.0 793.5887664010527 25.786468030639192 0.09581864957251308 5.073636206047803 0.0 0.0 3.4787316828507215e-16 -0.5670078761823092 -14.858851960045829 0.030829920539377862 1.4502414206204821 32.8495581960092 -1.5685423874527136 0.0 0.0 -7.951386703658792e-16 0.0 0.0 3.4787316828507215e-16 -0.07807206560527763 -2.0866199967006693 -1.1417579502187951 3.1302564642217954 -4.913468103172492e-16 2.1228414093988745e-16 0.0 0.0 9.93923337957349e-17 -24.305656707181498 3.875851320845364 75.40764533052545 -32.59255089780329 -3.393835349608754e-15 -5.393177853558273e-15 0.0 0.0 1.5902773407317584e-15 0.0 0.0 9.93923337957349e-17 -1.8054707859183736 -13.879069833388881 3.0062939918999994 0.0 0.0 9.93923337957349e-17 20.457059659134284 0.8748781098165274 -55.00566087124455 62.80892226925164 -1.0858543806681156e-14 6.6292439770201676e-15 0.0 0.0 1.5902773407317584e-15 0.0 0.0 3.4787316828507215e-16 -0.3890404832905 -10.255592342572264 -2.423104433203696 -0.1306891252664183 28.130183334466672 -1.6450647383873047 0.0 0.0 0.0
0.0 0.0 793.5887664010527 25.832324530926506 0.30170397537895316 4.964016262168751 0.0 0.0 -7.454425034680117e-17 -0.5807047645140532 -15.136608265467197 0.1779056795258924 1.566295503811882 33.05119256740323 -1.663290096320538 0.0 0.0 0.0 0.0 0.0 -7.454425034680117e-17 -0.07512088718507187 -1.9980579935301526 -1.0730059012896773 2.8411015662653805 1.9133154254289137e-16 -3.0301338098155665e-16 0.0 0.0 0.0 -24.434897909419764 4.202843881782779 75.37569333073154 -32.56589268276292 5.582706219648642e-15 -2.0969503874918907e-15 0.0 0.0 0.0 0.0 0.0 0.0 -1.825524742209116 -13.951417622901507 2.936739768912266 0.0 0.0 0.0 19.924105036951065 1.9968728982608221 -56.79746078907909 61.48333029541487 -5.898573196943873e-16 1.1452472807456753e-14 0.0 0.0 -1.1927080055488188e-15 0.0 0.0 -7.454425034680117e-17 -0.4112453974675504 -10.770909914847529 -2.4386123676813285 -0.1342995704180496 28.66353016162254 -1.4986934486997565 -1.3793457181406746e-33 -1.9878466759146977e-16 -7.951386703658791e-16
0.0 0.0 793.5887664010527 25.962198778798378 0.33759243292378627 4.882977834365541 0.0 0.0 1.4908850069360235e-16 -0.6163057663579006 -15.26957332268033 0.27966094243381634 1.7111333591478914 33.09000766777093 -1.6161780507340375 0.0 0.0 -7.951386703658792e-16 0.0 0.0 1.4908850069360235e-16 -0.07276278467327972 -1.8404813691232909 -1.1037247114048507 2.6060607528170485 -2.034182286246165e-17 -8.942996855914788e-16 0.0 0.0 0.0 -25.008394373399618 4.5598147927166 75.55927469228558 -32.68102662629264 -7.339524092235247e-15 8.076280773602819e-15 0.0 0.0 2.3854160110976376e-15 0.0 0.0 0.0 -1.6562498044926455 -13.881013631768777 3.0739068610060185 0.0 0.0 0.0 19.679797592682498 3.5163604816971423 -58.22343414055416 60.76141885544536 1.6085443504953314e-15 2.7438136150746543e-15 0.0 0.0 2.782985346280577e-15 0.0 0.0 1.4908850069360235e-16 -0.4449816554628559 -11.075564515609885 -2.398901381678525 -0.0504507045787237 29.095118702490627 -1.4676526078480023 -2.2069531490250793e-32 -3.1805546814635168e-15 -7.951386703658792e-16
